<?xml version="1.0" encoding="utf-8"?>
<svg xmlns="http://www.w3.org/2000/svg">
  <symbol id="sprite-star"
          viewBox="0 0 100 100">
    <ellipse style="fill-opacity: 0.15;"
             cx="50"
             cy="50"
             rx="50"
             ry="50">
      <animate attributeType="xml"
               attributeName="fill-opacity"
               values=".25;0;.25"
               dur="9s"
               repeatCount="indefinite" />
    </ellipse>
    <path style="fill-opacity: 0.15;"
          d="M 50 2.174 L 54.081 4.706 L 58.548 2.944 L 62.112 6.165 L 66.822 5.23 L 69.754 9.036 L 74.555 8.958 L 76.761 13.226 L 81.498 14.008 L 82.908 18.602 L 87.429 20.217 L 87.997 24.99 L 92.158 27.388 L 91.864 32.185 L 95.531 35.288 L 94.387 39.956 L 97.441 43.664 L 95.482 48.052 L 97.826 52.247 L 95.116 56.215 L 96.674 60.761 L 93.3 64.18 L 94.021 68.932 L 90.092 71.693 L 89.954 76.498 L 85.595 78.512 L 84.603 83.215 L 79.955 84.418 L 78.14 88.868 L 73.351 89.221 L 70.772 93.274 L 65.997 92.766 L 62.736 96.293 L 58.129 94.939 L 54.291 97.827 L 50 95.672 L 45.709 97.827 L 41.871 94.939 L 37.264 96.293 L 34.003 92.766 L 29.228 93.274 L 26.649 89.221 L 21.86 88.868 L 20.045 84.418 L 15.397 83.215 L 14.405 78.512 L 10.046 76.498 L 9.908 71.693 L 5.979 68.932 L 6.7 64.18 L 3.326 60.761 L 4.884 56.215 L 2.174 52.247 L 4.518 48.052 L 2.559 43.664 L 5.613 39.956 L 4.469 35.288 L 8.136 32.185 L 7.842 27.388 L 12.003 24.99 L 12.571 20.217 L 17.092 18.602 L 18.502 14.008 L 23.239 13.226 L 25.445 8.958 L 30.246 9.036 L 33.178 5.23 L 37.888 6.165 L 41.452 2.944 L 45.919 4.706 Z">
      <animateTransform attributeType="xml"
                        attributeName="transform"
                        type="rotate"
                        from="0 50 50"
                        to="360 50 50"
                        dur="45s"
                        repeatCount="indefinite" />
      <animate attributeType="xml"
               attributeName="fill-opacity"
               values="0.1;0.2;0.1"
               dur="5s"
               repeatCount="indefinite" />
    </path>
    <path style="fill-opacity: 0.25;"
          d="M 50 4.348 L 54.3 6.34 L 58.906 5.225 L 62.735 8.018 L 67.47 7.823 L 70.681 11.309 L 75.363 12.042 L 77.832 16.087 L 82.281 17.719 L 83.913 22.168 L 87.958 24.637 L 88.691 29.319 L 92.177 32.53 L 91.982 37.265 L 94.775 41.094 L 93.66 45.7 L 95.652 50 L 93.66 54.3 L 94.775 58.906 L 91.982 62.735 L 92.177 67.47 L 88.691 70.681 L 87.958 75.363 L 83.913 77.832 L 82.281 82.281 L 77.832 83.913 L 75.363 87.958 L 70.681 88.691 L 67.47 92.177 L 62.735 91.982 L 58.906 94.775 L 54.3 93.66 L 50 95.652 L 45.7 93.66 L 41.094 94.775 L 37.265 91.982 L 32.53 92.177 L 29.319 88.691 L 24.637 87.958 L 22.168 83.913 L 17.719 82.281 L 16.087 77.832 L 12.042 75.363 L 11.309 70.681 L 7.823 67.47 L 8.018 62.735 L 5.225 58.906 L 6.34 54.3 L 4.348 50 L 6.34 45.7 L 5.225 41.094 L 8.018 37.265 L 7.823 32.53 L 11.309 29.319 L 12.042 24.637 L 16.087 22.168 L 17.719 17.719 L 22.168 16.087 L 24.637 12.042 L 29.319 11.309 L 32.53 7.823 L 37.265 8.018 L 41.094 5.225 L 45.7 6.34 Z">
      <animateTransform attributeType="xml"
                        attributeName="transform"
                        type="rotate"
                        from="0 50 50"
                        to="-360 50 50"
                        dur="37s"
                        repeatCount="indefinite" />
      <animate attributeType="xml"
               attributeName="fill-opacity"
               values="0.2;0.3;0.2"
               dur="7s"
               repeatCount="indefinite" />
    </path>
    <ellipse style="fill-opacity: 1;"
             cx="50"
             cy="50"
             rx="43.478"
             ry="43.478" />
  </symbol>

  <symbol id="sprite-blackhole"
          viewBox="100 0 100 100">
    <circle cx="150"
             cy="50"
             r="50"
             style="fill-opacity: 0.1;">
      <animate attributeType="xml"
               attributeName="fill-opacity"
               values=".1;.05;.1"
               dur="11s"
               repeatCount="indefinite" />
      <animate attributeType="xml"
               attributeName="r"
               values="50;45;50"
               dur="15s"
               repeatCount="indefinite" />
    </circle>
    <path d="M 150 2.173 L 154.081 4.705 L 158.548 2.943 L 162.112 6.164 L 166.822 5.229 L 169.754 9.035 L 174.555 8.957 L 176.761 13.225 L 181.498 14.007 L 182.908 18.601 L 187.429 20.216 L 187.997 24.989 L 192.158 27.387 L 191.864 32.184 L 195.531 35.287 L 194.387 39.955 L 197.441 43.663 L 195.482 48.051 L 197.826 52.246 L 195.116 56.214 L 196.674 60.76 L 193.3 64.179 L 194.021 68.931 L 190.092 71.692 L 189.954 76.497 L 185.595 78.511 L 184.603 83.214 L 179.955 84.417 L 178.14 88.867 L 173.351 89.22 L 170.772 93.273 L 165.997 92.765 L 162.736 96.292 L 158.129 94.938 L 154.291 97.826 L 150 95.671 L 145.709 97.826 L 141.871 94.938 L 137.264 96.292 L 134.003 92.765 L 129.228 93.273 L 126.649 89.22 L 121.86 88.867 L 120.045 84.417 L 115.397 83.214 L 114.405 78.511 L 110.046 76.497 L 109.908 71.692 L 105.979 68.931 L 106.7 64.179 L 103.326 60.76 L 104.884 56.214 L 102.174 52.246 L 104.518 48.051 L 102.559 43.663 L 105.613 39.955 L 104.469 35.287 L 108.136 32.184 L 107.842 27.387 L 112.003 24.989 L 112.571 20.216 L 117.092 18.601 L 118.502 14.007 L 123.239 13.225 L 125.445 8.957 L 130.246 9.035 L 133.178 5.229 L 137.888 6.164 L 141.452 2.943 L 145.919 4.705 Z"
          style="fill-opacity: 0.15;">
      <animateTransform attributeType="xml"
                        attributeName="transform"
                        type="rotate"
                        from="0 150 50"
                        to="360 150 50"
                        dur="35s"
                        repeatCount="indefinite" />
      <animate attributeType="xml"
               attributeName="fill-opacity"
               values="0;.05;0"
               dur="8s"
               repeatCount="indefinite" />
    </path>
    <path d="M 150 -0.145 L 152.377 31.318 L 162.477 1.437 L 156.981 32.505 L 174.17 6.082 L 161.147 34.803 L 184.344 13.5 L 164.613 38.068 L 192.361 23.223 L 167.16 42.096 L 197.715 34.641 L 168.629 46.632 L 200.072 47.037 L 168.927 51.393 L 199.282 59.631 L 168.036 56.078 L 195.396 71.633 L 166.012 60.395 L 188.657 82.288 L 162.982 64.07 L 179.49 90.926 L 159.136 66.874 L 168.469 97.006 L 154.716 68.63 L 156.288 100.144 L 150 69.228 L 143.712 100.144 L 145.284 68.63 L 131.531 97.006 L 140.864 66.874 L 120.51 90.926 L 137.018 64.07 L 111.343 82.288 L 133.988 60.395 L 104.604 71.633 L 131.964 56.078 L 100.718 59.631 L 131.073 51.393 L 99.928 47.037 L 131.371 46.632 L 102.285 34.641 L 132.84 42.096 L 107.639 23.223 L 135.387 38.068 L 115.656 13.5 L 138.853 34.803 L 125.83 6.082 L 143.019 32.505 L 137.523 1.437 L 147.623 31.318 Z"
          style="fill-opacity: 0.25;">
      <animateTransform attributeType="xml"
                        attributeName="transform"
                        type="rotate"
                        from="0 150 50"
                        to="-360 150 50"
                        dur="37s"
                        repeatCount="indefinite" />
    </path>
    <path d="M 150 10 L 151.242 42.807 L 163.032 12.182 L 153.591 43.616 L 174.653 18.492 L 155.552 45.147 L 183.601 28.247 L 156.91 47.233 L 188.909 40.388 L 157.52 49.65 L 190 53.601 L 157.315 52.134 L 186.756 66.453 L 156.317 54.416 L 179.53 77.553 L 154.635 56.25 L 169.103 85.696 L 152.45 57.436 L 156.606 90.001 L 150 57.847 L 143.394 90.001 L 147.55 57.436 L 130.897 85.696 L 145.365 56.25 L 120.47 77.553 L 143.683 54.416 L 113.244 66.453 L 142.685 52.134 L 110 53.601 L 142.48 49.65 L 111.091 40.388 L 143.09 47.233 L 116.399 28.247 L 144.448 45.147 L 125.347 18.492 L 146.409 43.616 L 136.968 12.182 L 148.758 42.807 Z"
          style="fill-opacity: 0.5;">
      <animateTransform attributeType="xml"
                        attributeName="transform"
                        type="rotate"
                        from="0 150 50"
                        to="360 150 50"
                        dur="29s"
                        repeatCount="indefinite" />
    </path>
    <circle style="fill-opacity: 1;"
            fill="#000000"
            cx="150"
            cy="50"
            r="20">
      <animate attributeType="xml"
               attributeName="r"
               values="18;21;19;20;17;22;18"
               dur="10s"
               repeatCount="indefinite" />
    </circle>
  </symbol>

</svg>
