<?xml version="1.0" encoding="utf-8"?>
<svg viewBox="0 0 100 100" xmlns="http://www.w3.org/2000/svg" xmlns:bx="https://boxy-svg.com">
  <ellipse style="fill-opacity: 0.25;" cx="50" cy="50" rx="50" ry="50"/>
  <path style="fill-opacity: 0.15;" d="M 50 2.174 L 54.081 4.706 L 58.548 2.944 L 62.112 6.165 L 66.822 5.23 L 69.754 9.036 L 74.555 8.958 L 76.761 13.226 L 81.498 14.008 L 82.908 18.602 L 87.429 20.217 L 87.997 24.99 L 92.158 27.388 L 91.864 32.185 L 95.531 35.288 L 94.387 39.956 L 97.441 43.664 L 95.482 48.052 L 97.826 52.247 L 95.116 56.215 L 96.674 60.761 L 93.3 64.18 L 94.021 68.932 L 90.092 71.693 L 89.954 76.498 L 85.595 78.512 L 84.603 83.215 L 79.955 84.418 L 78.14 88.868 L 73.351 89.221 L 70.772 93.274 L 65.997 92.766 L 62.736 96.293 L 58.129 94.939 L 54.291 97.827 L 50 95.672 L 45.709 97.827 L 41.871 94.939 L 37.264 96.293 L 34.003 92.766 L 29.228 93.274 L 26.649 89.221 L 21.86 88.868 L 20.045 84.418 L 15.397 83.215 L 14.405 78.512 L 10.046 76.498 L 9.908 71.693 L 5.979 68.932 L 6.7 64.18 L 3.326 60.761 L 4.884 56.215 L 2.174 52.247 L 4.518 48.052 L 2.559 43.664 L 5.613 39.956 L 4.469 35.288 L 8.136 32.185 L 7.842 27.388 L 12.003 24.99 L 12.571 20.217 L 17.092 18.602 L 18.502 14.008 L 23.239 13.226 L 25.445 8.958 L 30.246 9.036 L 33.178 5.23 L 37.888 6.165 L 41.452 2.944 L 45.919 4.706 Z" bx:shape="star 50 50.097 47.874 47.923 0.951 35 1@8307d24c"/>
  <path style="fill-opacity: 0.25;" d="M 50 4.348 L 54.3 6.34 L 58.906 5.225 L 62.735 8.018 L 67.47 7.823 L 70.681 11.309 L 75.363 12.042 L 77.832 16.087 L 82.281 17.719 L 83.913 22.168 L 87.958 24.637 L 88.691 29.319 L 92.177 32.53 L 91.982 37.265 L 94.775 41.094 L 93.66 45.7 L 95.652 50 L 93.66 54.3 L 94.775 58.906 L 91.982 62.735 L 92.177 67.47 L 88.691 70.681 L 87.958 75.363 L 83.913 77.832 L 82.281 82.281 L 77.832 83.913 L 75.363 87.958 L 70.681 88.691 L 67.47 92.177 L 62.735 91.982 L 58.906 94.775 L 54.3 93.66 L 50 95.652 L 45.7 93.66 L 41.094 94.775 L 37.265 91.982 L 32.53 92.177 L 29.319 88.691 L 24.637 87.958 L 22.168 83.913 L 17.719 82.281 L 16.087 77.832 L 12.042 75.363 L 11.309 70.681 L 7.823 67.47 L 8.018 62.735 L 5.225 58.906 L 6.34 54.3 L 4.348 50 L 6.34 45.7 L 5.225 41.094 L 8.018 37.265 L 7.823 32.53 L 11.309 29.319 L 12.042 24.637 L 16.087 22.168 L 17.719 17.719 L 22.168 16.087 L 24.637 12.042 L 29.319 11.309 L 32.53 7.823 L 37.265 8.018 L 41.094 5.225 L 45.7 6.34 Z" bx:shape="star 50 50 45.652 45.652 0.961 32 1@376c1685"/>
  <ellipse style="fill-opacity: 1;" cx="50" cy="50" rx="43.478" ry="43.478"/>
</svg>
